<mxfile host="app.diagrams.net" modified="2024-03-09T21:35:03.614Z" agent="Mozilla/5.0 (Windows NT 10.0; Win64; x64) AppleWebKit/537.36 (KHTML, like Gecko) Chrome/122.0.0.0 Safari/537.36" etag="Mj4PKW6fC2iPUp6Xb7LL" version="24.0.2" type="device">
  <diagram id="R2lEEEUBdFMjLlhIrx00" name="Page-1">
    <mxGraphModel dx="1012" dy="612" grid="1" gridSize="10" guides="1" tooltips="1" connect="1" arrows="1" fold="1" page="1" pageScale="1" pageWidth="850" pageHeight="1100" background="none" math="0" shadow="0" extFonts="Permanent Marker^https://fonts.googleapis.com/css?family=Permanent+Marker">
      <root>
        <mxCell id="0" />
        <mxCell id="1" parent="0" />
        <mxCell id="LCfxhYpiwXt6MlaV5HZB-1" style="edgeStyle=orthogonalEdgeStyle;rounded=0;orthogonalLoop=1;jettySize=auto;html=1;exitX=0.75;exitY=1;exitDx=0;exitDy=0;" parent="1" source="LCfxhYpiwXt6MlaV5HZB-2" edge="1">
          <mxGeometry relative="1" as="geometry">
            <mxPoint x="489.9999999999998" y="750" as="targetPoint" />
          </mxGeometry>
        </mxCell>
        <mxCell id="LCfxhYpiwXt6MlaV5HZB-2" value="&lt;font style=&quot;font-size: 27px;&quot;&gt;blog&amp;nbsp;&lt;/font&gt;" style="rounded=0;whiteSpace=wrap;html=1;" parent="1" vertex="1">
          <mxGeometry x="300" y="530" width="210" height="70" as="geometry" />
        </mxCell>
        <mxCell id="LCfxhYpiwXt6MlaV5HZB-3" value="" style="endArrow=none;html=1;rounded=0;" parent="1" source="LCfxhYpiwXt6MlaV5HZB-8" edge="1">
          <mxGeometry width="50" height="50" relative="1" as="geometry">
            <mxPoint x="320" y="540" as="sourcePoint" />
            <mxPoint x="340" y="460" as="targetPoint" />
            <Array as="points" />
          </mxGeometry>
        </mxCell>
        <mxCell id="LCfxhYpiwXt6MlaV5HZB-4" value="" style="endArrow=none;html=1;rounded=0;" parent="1" source="LCfxhYpiwXt6MlaV5HZB-6" edge="1">
          <mxGeometry width="50" height="50" relative="1" as="geometry">
            <mxPoint x="469.28999999999996" y="540" as="sourcePoint" />
            <mxPoint x="469.28999999999996" y="430" as="targetPoint" />
          </mxGeometry>
        </mxCell>
        <mxCell id="LCfxhYpiwXt6MlaV5HZB-5" value="" style="endArrow=none;html=1;rounded=0;" parent="1" target="LCfxhYpiwXt6MlaV5HZB-6" edge="1">
          <mxGeometry width="50" height="50" relative="1" as="geometry">
            <mxPoint x="469.28999999999996" y="540" as="sourcePoint" />
            <mxPoint x="469.28999999999996" y="430" as="targetPoint" />
          </mxGeometry>
        </mxCell>
        <mxCell id="LCfxhYpiwXt6MlaV5HZB-6" value="&lt;font style=&quot;font-size: 18px;&quot;&gt;images&amp;nbsp;&lt;/font&gt;" style="ellipse;whiteSpace=wrap;html=1;" parent="1" vertex="1">
          <mxGeometry x="420" y="380" width="140" height="70" as="geometry" />
        </mxCell>
        <mxCell id="LCfxhYpiwXt6MlaV5HZB-7" value="" style="endArrow=none;html=1;rounded=0;" parent="1" target="LCfxhYpiwXt6MlaV5HZB-8" edge="1">
          <mxGeometry width="50" height="50" relative="1" as="geometry">
            <mxPoint x="320" y="540" as="sourcePoint" />
            <mxPoint x="340" y="460" as="targetPoint" />
            <Array as="points" />
          </mxGeometry>
        </mxCell>
        <mxCell id="LCfxhYpiwXt6MlaV5HZB-8" value="&lt;font style=&quot;font-size: 18px;&quot;&gt;&lt;u&gt;ID&amp;nbsp;&lt;/u&gt;&lt;/font&gt;" style="ellipse;whiteSpace=wrap;html=1;" parent="1" vertex="1">
          <mxGeometry x="280" y="420" width="130" height="50" as="geometry" />
        </mxCell>
        <mxCell id="LCfxhYpiwXt6MlaV5HZB-9" value="" style="endArrow=none;html=1;rounded=0;exitX=1;exitY=0.5;exitDx=0;exitDy=0;" parent="1" source="LCfxhYpiwXt6MlaV5HZB-2" edge="1">
          <mxGeometry width="50" height="50" relative="1" as="geometry">
            <mxPoint x="520" y="540" as="sourcePoint" />
            <mxPoint x="570" y="490" as="targetPoint" />
            <Array as="points">
              <mxPoint x="540" y="510" />
            </Array>
          </mxGeometry>
        </mxCell>
        <mxCell id="LCfxhYpiwXt6MlaV5HZB-10" value="&lt;font size=&quot;3&quot;&gt;Content&lt;/font&gt;" style="ellipse;whiteSpace=wrap;html=1;" parent="1" vertex="1">
          <mxGeometry x="550" y="450" width="130" height="80" as="geometry" />
        </mxCell>
        <mxCell id="LCfxhYpiwXt6MlaV5HZB-11" value="&lt;h2&gt;titele&lt;/h2&gt;" style="ellipse;whiteSpace=wrap;html=1;" parent="1" vertex="1">
          <mxGeometry x="280" y="690" width="130" height="80" as="geometry" />
        </mxCell>
        <mxCell id="LCfxhYpiwXt6MlaV5HZB-12" value="" style="endArrow=none;html=1;rounded=0;entryX=0.25;entryY=1;entryDx=0;entryDy=0;" parent="1" target="LCfxhYpiwXt6MlaV5HZB-2" edge="1">
          <mxGeometry width="50" height="50" relative="1" as="geometry">
            <mxPoint x="330" y="690" as="sourcePoint" />
            <mxPoint x="345" y="630" as="targetPoint" />
          </mxGeometry>
        </mxCell>
        <mxCell id="LCfxhYpiwXt6MlaV5HZB-13" value="cretion&amp;nbsp; Data&amp;nbsp;" style="ellipse;whiteSpace=wrap;html=1;" parent="1" vertex="1">
          <mxGeometry x="440" y="740" width="130" height="90" as="geometry" />
        </mxCell>
        <mxCell id="LCfxhYpiwXt6MlaV5HZB-24" style="edgeStyle=orthogonalEdgeStyle;rounded=0;orthogonalLoop=1;jettySize=auto;html=1;exitX=1;exitY=0.5;exitDx=0;exitDy=0;" parent="1" source="LCfxhYpiwXt6MlaV5HZB-18" edge="1">
          <mxGeometry relative="1" as="geometry">
            <mxPoint x="1310" y="600" as="targetPoint" />
          </mxGeometry>
        </mxCell>
        <mxCell id="50w-MERrnphYdVxp7qIL-3" style="edgeStyle=orthogonalEdgeStyle;rounded=0;orthogonalLoop=1;jettySize=auto;html=1;exitX=1;exitY=0;exitDx=0;exitDy=0;" edge="1" parent="1" source="LCfxhYpiwXt6MlaV5HZB-18" target="LCfxhYpiwXt6MlaV5HZB-22">
          <mxGeometry relative="1" as="geometry" />
        </mxCell>
        <mxCell id="50w-MERrnphYdVxp7qIL-6" style="edgeStyle=orthogonalEdgeStyle;rounded=0;orthogonalLoop=1;jettySize=auto;html=1;exitX=0;exitY=0;exitDx=0;exitDy=0;" edge="1" parent="1" source="LCfxhYpiwXt6MlaV5HZB-18">
          <mxGeometry relative="1" as="geometry">
            <mxPoint x="910" y="420" as="targetPoint" />
            <Array as="points">
              <mxPoint x="1015" y="610" />
              <mxPoint x="911" y="610" />
            </Array>
          </mxGeometry>
        </mxCell>
        <mxCell id="50w-MERrnphYdVxp7qIL-59" value="" style="edgeStyle=orthogonalEdgeStyle;rounded=0;orthogonalLoop=1;jettySize=auto;html=1;" edge="1" parent="1" source="LCfxhYpiwXt6MlaV5HZB-18" target="50w-MERrnphYdVxp7qIL-58">
          <mxGeometry relative="1" as="geometry" />
        </mxCell>
        <mxCell id="50w-MERrnphYdVxp7qIL-68" value="" style="edgeStyle=orthogonalEdgeStyle;rounded=0;orthogonalLoop=1;jettySize=auto;html=1;" edge="1" parent="1" target="50w-MERrnphYdVxp7qIL-67">
          <mxGeometry relative="1" as="geometry">
            <mxPoint x="1070" y="700" as="sourcePoint" />
            <Array as="points">
              <mxPoint x="1060" y="701" />
              <mxPoint x="1060" y="890" />
            </Array>
          </mxGeometry>
        </mxCell>
        <mxCell id="50w-MERrnphYdVxp7qIL-77" style="edgeStyle=orthogonalEdgeStyle;rounded=0;orthogonalLoop=1;jettySize=auto;html=1;exitX=0.25;exitY=0;exitDx=0;exitDy=0;entryX=0.5;entryY=1;entryDx=0;entryDy=0;" edge="1" parent="1" source="LCfxhYpiwXt6MlaV5HZB-18" target="LCfxhYpiwXt6MlaV5HZB-20">
          <mxGeometry relative="1" as="geometry" />
        </mxCell>
        <mxCell id="LCfxhYpiwXt6MlaV5HZB-18" value="&lt;span style=&quot;font-size: 27px;&quot;&gt;Uesr&lt;/span&gt;" style="rounded=0;whiteSpace=wrap;html=1;" parent="1" vertex="1">
          <mxGeometry x="1060" y="628" width="210" height="70" as="geometry" />
        </mxCell>
        <mxCell id="LCfxhYpiwXt6MlaV5HZB-19" value="&lt;h2&gt;&lt;u&gt;ID&lt;/u&gt;&lt;/h2&gt;" style="ellipse;whiteSpace=wrap;html=1;" parent="1" vertex="1">
          <mxGeometry x="850" y="360" width="120" height="60" as="geometry" />
        </mxCell>
        <mxCell id="LCfxhYpiwXt6MlaV5HZB-20" value="&lt;h2&gt;&lt;span style=&quot;font-weight: normal;&quot;&gt;Name&amp;nbsp;&lt;/span&gt;&lt;/h2&gt;" style="ellipse;whiteSpace=wrap;html=1;" parent="1" vertex="1">
          <mxGeometry x="990" y="320" width="120" height="60" as="geometry" />
        </mxCell>
        <mxCell id="LCfxhYpiwXt6MlaV5HZB-21" value="&lt;h2&gt;phone&lt;/h2&gt;" style="ellipse;whiteSpace=wrap;html=1;" parent="1" vertex="1">
          <mxGeometry x="1120" y="320" width="120" height="70" as="geometry" />
        </mxCell>
        <mxCell id="LCfxhYpiwXt6MlaV5HZB-22" value="&lt;h2&gt;E-maill&lt;/h2&gt;" style="ellipse;whiteSpace=wrap;html=1;" parent="1" vertex="1">
          <mxGeometry x="1210" y="400" width="120" height="80" as="geometry" />
        </mxCell>
        <mxCell id="LCfxhYpiwXt6MlaV5HZB-27" value="" style="edgeStyle=orthogonalEdgeStyle;rounded=0;orthogonalLoop=1;jettySize=auto;html=1;" parent="1" target="LCfxhYpiwXt6MlaV5HZB-26" edge="1">
          <mxGeometry relative="1" as="geometry">
            <mxPoint x="1420" y="600" as="sourcePoint" />
          </mxGeometry>
        </mxCell>
        <mxCell id="LCfxhYpiwXt6MlaV5HZB-26" value="&lt;h2&gt;customr=0&lt;/h2&gt;" style="ellipse;whiteSpace=wrap;html=1;" parent="1" vertex="1">
          <mxGeometry x="1460" y="490" width="110" height="80" as="geometry" />
        </mxCell>
        <mxCell id="LCfxhYpiwXt6MlaV5HZB-31" value="&lt;h2&gt;Admin=1&lt;/h2&gt;" style="ellipse;whiteSpace=wrap;html=1;" parent="1" vertex="1">
          <mxGeometry x="1460" y="650" width="110" height="80" as="geometry" />
        </mxCell>
        <mxCell id="50w-MERrnphYdVxp7qIL-1" style="edgeStyle=orthogonalEdgeStyle;rounded=0;orthogonalLoop=1;jettySize=auto;html=1;exitX=1;exitY=1;exitDx=0;exitDy=0;" edge="1" parent="1" source="LCfxhYpiwXt6MlaV5HZB-32" target="LCfxhYpiwXt6MlaV5HZB-31">
          <mxGeometry relative="1" as="geometry" />
        </mxCell>
        <mxCell id="LCfxhYpiwXt6MlaV5HZB-32" value="&lt;h2&gt;Type of user&lt;/h2&gt;" style="ellipse;shape=doubleEllipse;margin=3;whiteSpace=wrap;html=1;align=center;" parent="1" vertex="1">
          <mxGeometry x="1310" y="565" width="120" height="70" as="geometry" />
        </mxCell>
        <mxCell id="LCfxhYpiwXt6MlaV5HZB-40" style="edgeStyle=orthogonalEdgeStyle;rounded=0;orthogonalLoop=1;jettySize=auto;html=1;exitX=0.25;exitY=0;exitDx=0;exitDy=0;" parent="1" source="LCfxhYpiwXt6MlaV5HZB-33" edge="1">
          <mxGeometry relative="1" as="geometry">
            <mxPoint x="1020" y="970" as="targetPoint" />
          </mxGeometry>
        </mxCell>
        <mxCell id="LCfxhYpiwXt6MlaV5HZB-41" style="edgeStyle=orthogonalEdgeStyle;rounded=0;orthogonalLoop=1;jettySize=auto;html=1;exitX=0;exitY=0;exitDx=0;exitDy=0;" parent="1" source="LCfxhYpiwXt6MlaV5HZB-33" edge="1">
          <mxGeometry relative="1" as="geometry">
            <mxPoint x="940" y="1030" as="targetPoint" />
            <Array as="points">
              <mxPoint x="1135" y="1105" />
              <mxPoint x="941" y="1105" />
              <mxPoint x="941" y="1020" />
            </Array>
          </mxGeometry>
        </mxCell>
        <mxCell id="LCfxhYpiwXt6MlaV5HZB-44" style="edgeStyle=orthogonalEdgeStyle;rounded=0;orthogonalLoop=1;jettySize=auto;html=1;exitX=0;exitY=0.5;exitDx=0;exitDy=0;" parent="1" source="LCfxhYpiwXt6MlaV5HZB-33" edge="1">
          <mxGeometry relative="1" as="geometry">
            <mxPoint x="910" y="1084" as="targetPoint" />
          </mxGeometry>
        </mxCell>
        <mxCell id="LCfxhYpiwXt6MlaV5HZB-46" style="edgeStyle=orthogonalEdgeStyle;rounded=0;orthogonalLoop=1;jettySize=auto;html=1;exitX=0;exitY=1;exitDx=0;exitDy=0;" parent="1" source="LCfxhYpiwXt6MlaV5HZB-33" target="LCfxhYpiwXt6MlaV5HZB-47" edge="1">
          <mxGeometry relative="1" as="geometry">
            <mxPoint x="960" y="1170" as="targetPoint" />
          </mxGeometry>
        </mxCell>
        <mxCell id="LCfxhYpiwXt6MlaV5HZB-48" style="edgeStyle=orthogonalEdgeStyle;rounded=0;orthogonalLoop=1;jettySize=auto;html=1;exitX=1;exitY=0.25;exitDx=0;exitDy=0;" parent="1" source="LCfxhYpiwXt6MlaV5HZB-33" target="LCfxhYpiwXt6MlaV5HZB-49" edge="1">
          <mxGeometry relative="1" as="geometry">
            <mxPoint x="1420" y="1067.2857142857144" as="targetPoint" />
          </mxGeometry>
        </mxCell>
        <mxCell id="LCfxhYpiwXt6MlaV5HZB-33" value="&lt;h2&gt;Book&amp;nbsp;&lt;/h2&gt;" style="whiteSpace=wrap;html=1;align=center;" parent="1" vertex="1">
          <mxGeometry x="1135" y="1180" width="210" height="70" as="geometry" />
        </mxCell>
        <mxCell id="LCfxhYpiwXt6MlaV5HZB-36" style="edgeStyle=orthogonalEdgeStyle;rounded=0;orthogonalLoop=1;jettySize=auto;html=1;exitX=0.5;exitY=1;exitDx=0;exitDy=0;entryX=0.5;entryY=0;entryDx=0;entryDy=0;" parent="1" source="LCfxhYpiwXt6MlaV5HZB-35" target="LCfxhYpiwXt6MlaV5HZB-33" edge="1">
          <mxGeometry relative="1" as="geometry" />
        </mxCell>
        <mxCell id="LCfxhYpiwXt6MlaV5HZB-37" style="edgeStyle=orthogonalEdgeStyle;rounded=0;orthogonalLoop=1;jettySize=auto;html=1;exitX=0.5;exitY=0;exitDx=0;exitDy=0;entryX=0.5;entryY=1;entryDx=0;entryDy=0;" parent="1" source="LCfxhYpiwXt6MlaV5HZB-35" target="LCfxhYpiwXt6MlaV5HZB-18" edge="1">
          <mxGeometry relative="1" as="geometry">
            <mxPoint x="1150" y="710" as="targetPoint" />
          </mxGeometry>
        </mxCell>
        <mxCell id="LCfxhYpiwXt6MlaV5HZB-35" value="has book&amp;nbsp;" style="shape=rhombus;perimeter=rhombusPerimeter;whiteSpace=wrap;html=1;align=center;fillColor=#dae8fc;strokeColor=#6c8ebf;" parent="1" vertex="1">
          <mxGeometry x="1075" y="830" width="135" height="80" as="geometry" />
        </mxCell>
        <mxCell id="LCfxhYpiwXt6MlaV5HZB-38" value="M" style="text;html=1;align=center;verticalAlign=middle;resizable=0;points=[];autosize=1;strokeColor=#6c8ebf;fillColor=#dae8fc;" parent="1" vertex="1">
          <mxGeometry x="1240" y="1140" width="30" height="30" as="geometry" />
        </mxCell>
        <mxCell id="LCfxhYpiwXt6MlaV5HZB-39" value="1" style="text;html=1;align=center;verticalAlign=middle;resizable=0;points=[];autosize=1;strokeColor=#6c8ebf;fillColor=#dae8fc;" parent="1" vertex="1">
          <mxGeometry x="1165" y="700" width="30" height="30" as="geometry" />
        </mxCell>
        <mxCell id="LCfxhYpiwXt6MlaV5HZB-42" value="&lt;span style=&quot;font-size: 20px;&quot;&gt;&lt;u style=&quot;font-size: 18px;&quot;&gt;ID&lt;/u&gt;&lt;/span&gt;" style="ellipse;whiteSpace=wrap;html=1;align=center;" parent="1" vertex="1">
          <mxGeometry x="975" y="930" width="100" height="40" as="geometry" />
        </mxCell>
        <mxCell id="LCfxhYpiwXt6MlaV5HZB-43" value="&lt;h2&gt;Name&lt;/h2&gt;" style="ellipse;whiteSpace=wrap;html=1;align=center;" parent="1" vertex="1">
          <mxGeometry x="870" y="980" width="100" height="40" as="geometry" />
        </mxCell>
        <mxCell id="LCfxhYpiwXt6MlaV5HZB-45" value="&lt;h2&gt;phone&lt;/h2&gt;" style="ellipse;whiteSpace=wrap;html=1;align=center;" parent="1" vertex="1">
          <mxGeometry x="810" y="1065" width="100" height="40" as="geometry" />
        </mxCell>
        <mxCell id="LCfxhYpiwXt6MlaV5HZB-47" value="&lt;h2&gt;time&lt;/h2&gt;" style="ellipse;whiteSpace=wrap;html=1;align=center;" parent="1" vertex="1">
          <mxGeometry x="830" y="1240" width="100" height="40" as="geometry" />
        </mxCell>
        <mxCell id="LCfxhYpiwXt6MlaV5HZB-49" value="&lt;font style=&quot;font-size: 16px;&quot;&gt;N-of -pareson&lt;/font&gt;" style="ellipse;whiteSpace=wrap;html=1;align=center;" parent="1" vertex="1">
          <mxGeometry x="1340" y="1030" width="150" height="50" as="geometry" />
        </mxCell>
        <mxCell id="50w-MERrnphYdVxp7qIL-2" style="edgeStyle=orthogonalEdgeStyle;rounded=0;orthogonalLoop=1;jettySize=auto;html=1;exitX=0.75;exitY=0;exitDx=0;exitDy=0;entryX=0.423;entryY=1.029;entryDx=0;entryDy=0;entryPerimeter=0;" edge="1" parent="1" source="LCfxhYpiwXt6MlaV5HZB-18" target="LCfxhYpiwXt6MlaV5HZB-21">
          <mxGeometry relative="1" as="geometry" />
        </mxCell>
        <mxCell id="50w-MERrnphYdVxp7qIL-8" style="edgeStyle=orthogonalEdgeStyle;rounded=0;orthogonalLoop=1;jettySize=auto;html=1;exitX=0.25;exitY=0;exitDx=0;exitDy=0;" edge="1" parent="1" source="50w-MERrnphYdVxp7qIL-7" target="50w-MERrnphYdVxp7qIL-14">
          <mxGeometry relative="1" as="geometry">
            <mxPoint x="120" y="1830" as="targetPoint" />
          </mxGeometry>
        </mxCell>
        <mxCell id="50w-MERrnphYdVxp7qIL-17" style="edgeStyle=orthogonalEdgeStyle;rounded=0;orthogonalLoop=1;jettySize=auto;html=1;exitX=0.5;exitY=0;exitDx=0;exitDy=0;" edge="1" parent="1" source="50w-MERrnphYdVxp7qIL-7" target="50w-MERrnphYdVxp7qIL-18">
          <mxGeometry relative="1" as="geometry">
            <mxPoint x="290" y="1960" as="targetPoint" />
          </mxGeometry>
        </mxCell>
        <mxCell id="50w-MERrnphYdVxp7qIL-19" style="edgeStyle=orthogonalEdgeStyle;rounded=0;orthogonalLoop=1;jettySize=auto;html=1;exitX=0.75;exitY=0;exitDx=0;exitDy=0;" edge="1" parent="1" source="50w-MERrnphYdVxp7qIL-7" target="50w-MERrnphYdVxp7qIL-20">
          <mxGeometry relative="1" as="geometry">
            <mxPoint x="380" y="1970" as="targetPoint" />
          </mxGeometry>
        </mxCell>
        <mxCell id="50w-MERrnphYdVxp7qIL-21" style="edgeStyle=orthogonalEdgeStyle;rounded=0;orthogonalLoop=1;jettySize=auto;html=1;exitX=0.25;exitY=1;exitDx=0;exitDy=0;" edge="1" parent="1" source="50w-MERrnphYdVxp7qIL-7" target="50w-MERrnphYdVxp7qIL-22">
          <mxGeometry relative="1" as="geometry">
            <mxPoint x="210" y="2230" as="targetPoint" />
          </mxGeometry>
        </mxCell>
        <mxCell id="50w-MERrnphYdVxp7qIL-23" style="edgeStyle=orthogonalEdgeStyle;rounded=0;orthogonalLoop=1;jettySize=auto;html=1;exitX=0.75;exitY=1;exitDx=0;exitDy=0;" edge="1" parent="1" source="50w-MERrnphYdVxp7qIL-7" target="50w-MERrnphYdVxp7qIL-25">
          <mxGeometry relative="1" as="geometry">
            <mxPoint x="332" y="2200" as="targetPoint" />
          </mxGeometry>
        </mxCell>
        <mxCell id="50w-MERrnphYdVxp7qIL-7" value="&lt;span style=&quot;font-size: 18px;&quot;&gt;contact&lt;/span&gt;" style="whiteSpace=wrap;html=1;align=center;" vertex="1" parent="1">
          <mxGeometry x="160" y="2050" width="230" height="70" as="geometry" />
        </mxCell>
        <mxCell id="50w-MERrnphYdVxp7qIL-14" value="ID" style="ellipse;whiteSpace=wrap;html=1;align=center;fontStyle=4;" vertex="1" parent="1">
          <mxGeometry x="110" y="1940" width="100" height="40" as="geometry" />
        </mxCell>
        <mxCell id="50w-MERrnphYdVxp7qIL-18" value="Name" style="ellipse;whiteSpace=wrap;html=1;align=center;" vertex="1" parent="1">
          <mxGeometry x="240" y="1940" width="100" height="40" as="geometry" />
        </mxCell>
        <mxCell id="50w-MERrnphYdVxp7qIL-20" value="subjete" style="ellipse;whiteSpace=wrap;html=1;align=center;" vertex="1" parent="1">
          <mxGeometry x="410" y="1990" width="100" height="40" as="geometry" />
        </mxCell>
        <mxCell id="50w-MERrnphYdVxp7qIL-22" value="E-mail" style="ellipse;whiteSpace=wrap;html=1;align=center;" vertex="1" parent="1">
          <mxGeometry x="160" y="2210" width="100" height="40" as="geometry" />
        </mxCell>
        <mxCell id="50w-MERrnphYdVxp7qIL-25" value="message" style="ellipse;whiteSpace=wrap;html=1;align=center;" vertex="1" parent="1">
          <mxGeometry x="282" y="2210" width="100" height="40" as="geometry" />
        </mxCell>
        <mxCell id="50w-MERrnphYdVxp7qIL-29" style="edgeStyle=orthogonalEdgeStyle;rounded=0;orthogonalLoop=1;jettySize=auto;html=1;exitX=0.5;exitY=0;exitDx=0;exitDy=0;" edge="1" parent="1" source="50w-MERrnphYdVxp7qIL-28" target="50w-MERrnphYdVxp7qIL-30">
          <mxGeometry relative="1" as="geometry">
            <mxPoint x="420" y="1090" as="targetPoint" />
          </mxGeometry>
        </mxCell>
        <mxCell id="50w-MERrnphYdVxp7qIL-31" style="edgeStyle=orthogonalEdgeStyle;rounded=0;orthogonalLoop=1;jettySize=auto;html=1;exitX=0.25;exitY=0;exitDx=0;exitDy=0;" edge="1" parent="1" source="50w-MERrnphYdVxp7qIL-28" target="50w-MERrnphYdVxp7qIL-33">
          <mxGeometry relative="1" as="geometry">
            <mxPoint x="340" y="1110" as="targetPoint" />
          </mxGeometry>
        </mxCell>
        <mxCell id="50w-MERrnphYdVxp7qIL-34" style="edgeStyle=orthogonalEdgeStyle;rounded=0;orthogonalLoop=1;jettySize=auto;html=1;exitX=0;exitY=0.25;exitDx=0;exitDy=0;" edge="1" parent="1" source="50w-MERrnphYdVxp7qIL-28" target="50w-MERrnphYdVxp7qIL-35">
          <mxGeometry relative="1" as="geometry">
            <mxPoint x="180" y="1204" as="targetPoint" />
          </mxGeometry>
        </mxCell>
        <mxCell id="50w-MERrnphYdVxp7qIL-36" style="edgeStyle=orthogonalEdgeStyle;rounded=0;orthogonalLoop=1;jettySize=auto;html=1;exitX=0;exitY=0.75;exitDx=0;exitDy=0;" edge="1" parent="1" source="50w-MERrnphYdVxp7qIL-28" target="50w-MERrnphYdVxp7qIL-38">
          <mxGeometry relative="1" as="geometry">
            <mxPoint x="269.9999999999998" y="1280" as="targetPoint" />
          </mxGeometry>
        </mxCell>
        <mxCell id="50w-MERrnphYdVxp7qIL-39" style="edgeStyle=orthogonalEdgeStyle;rounded=0;orthogonalLoop=1;jettySize=auto;html=1;exitX=0.25;exitY=1;exitDx=0;exitDy=0;" edge="1" parent="1" source="50w-MERrnphYdVxp7qIL-28" target="50w-MERrnphYdVxp7qIL-40">
          <mxGeometry relative="1" as="geometry">
            <mxPoint x="367.57142857142867" y="1340" as="targetPoint" />
          </mxGeometry>
        </mxCell>
        <mxCell id="50w-MERrnphYdVxp7qIL-44" style="edgeStyle=orthogonalEdgeStyle;rounded=0;orthogonalLoop=1;jettySize=auto;html=1;exitX=1;exitY=1;exitDx=0;exitDy=0;" edge="1" parent="1" source="50w-MERrnphYdVxp7qIL-28" target="50w-MERrnphYdVxp7qIL-45">
          <mxGeometry relative="1" as="geometry">
            <mxPoint x="639.9999999999998" y="1410" as="targetPoint" />
          </mxGeometry>
        </mxCell>
        <mxCell id="50w-MERrnphYdVxp7qIL-28" value="itme" style="whiteSpace=wrap;html=1;align=center;" vertex="1" parent="1">
          <mxGeometry x="320" y="1190" width="190" height="60" as="geometry" />
        </mxCell>
        <mxCell id="50w-MERrnphYdVxp7qIL-30" value="&lt;u&gt;ID&lt;/u&gt;" style="ellipse;whiteSpace=wrap;html=1;align=center;" vertex="1" parent="1">
          <mxGeometry x="370" y="1070" width="100" height="40" as="geometry" />
        </mxCell>
        <mxCell id="50w-MERrnphYdVxp7qIL-33" value="&lt;h2&gt;titele&lt;/h2&gt;" style="ellipse;whiteSpace=wrap;html=1;align=center;" vertex="1" parent="1">
          <mxGeometry x="240" y="1080" width="100" height="40" as="geometry" />
        </mxCell>
        <mxCell id="50w-MERrnphYdVxp7qIL-35" value="price" style="ellipse;whiteSpace=wrap;html=1;align=center;" vertex="1" parent="1">
          <mxGeometry x="130.00000000000023" y="1183.9999999999998" width="100" height="40" as="geometry" />
        </mxCell>
        <mxCell id="50w-MERrnphYdVxp7qIL-38" value="image" style="ellipse;whiteSpace=wrap;html=1;align=center;" vertex="1" parent="1">
          <mxGeometry x="219.99999999999977" y="1260" width="100" height="40" as="geometry" />
        </mxCell>
        <mxCell id="50w-MERrnphYdVxp7qIL-40" value="descripien" style="ellipse;whiteSpace=wrap;html=1;align=center;" vertex="1" parent="1">
          <mxGeometry x="317.57142857142867" y="1320" width="100" height="40" as="geometry" />
        </mxCell>
        <mxCell id="50w-MERrnphYdVxp7qIL-45" value="has itme" style="shape=rhombus;perimeter=rhombusPerimeter;whiteSpace=wrap;html=1;align=center;fillColor=#f8cecc;strokeColor=#b85450;" vertex="1" parent="1">
          <mxGeometry x="579.9999999999998" y="1380" width="120" height="60" as="geometry" />
        </mxCell>
        <mxCell id="50w-MERrnphYdVxp7qIL-49" style="edgeStyle=orthogonalEdgeStyle;rounded=0;orthogonalLoop=1;jettySize=auto;html=1;exitX=0.25;exitY=0;exitDx=0;exitDy=0;" edge="1" parent="1" source="50w-MERrnphYdVxp7qIL-47" target="50w-MERrnphYdVxp7qIL-50">
          <mxGeometry relative="1" as="geometry">
            <mxPoint x="479.9999999999998" y="1520" as="targetPoint" />
          </mxGeometry>
        </mxCell>
        <mxCell id="50w-MERrnphYdVxp7qIL-51" style="edgeStyle=orthogonalEdgeStyle;rounded=0;orthogonalLoop=1;jettySize=auto;html=1;exitX=0;exitY=0.25;exitDx=0;exitDy=0;" edge="1" parent="1" source="50w-MERrnphYdVxp7qIL-47" target="50w-MERrnphYdVxp7qIL-53">
          <mxGeometry relative="1" as="geometry">
            <mxPoint x="409.9999999999998" y="1610" as="targetPoint" />
          </mxGeometry>
        </mxCell>
        <mxCell id="50w-MERrnphYdVxp7qIL-47" value="catrgory" style="whiteSpace=wrap;html=1;align=center;" vertex="1" parent="1">
          <mxGeometry x="510" y="1580" width="190" height="80" as="geometry" />
        </mxCell>
        <mxCell id="50w-MERrnphYdVxp7qIL-48" style="edgeStyle=orthogonalEdgeStyle;rounded=0;orthogonalLoop=1;jettySize=auto;html=1;exitX=0.5;exitY=0;exitDx=0;exitDy=0;entryX=0.615;entryY=0.968;entryDx=0;entryDy=0;entryPerimeter=0;" edge="1" parent="1" source="50w-MERrnphYdVxp7qIL-47" target="50w-MERrnphYdVxp7qIL-45">
          <mxGeometry relative="1" as="geometry" />
        </mxCell>
        <mxCell id="50w-MERrnphYdVxp7qIL-50" value="&lt;u&gt;ID&lt;/u&gt;" style="ellipse;whiteSpace=wrap;html=1;align=center;" vertex="1" parent="1">
          <mxGeometry x="429.9999999999998" y="1500" width="100" height="40" as="geometry" />
        </mxCell>
        <mxCell id="50w-MERrnphYdVxp7qIL-53" value="Name" style="ellipse;whiteSpace=wrap;html=1;align=center;" vertex="1" parent="1">
          <mxGeometry x="359.9999999999998" y="1590" width="100" height="40" as="geometry" />
        </mxCell>
        <mxCell id="50w-MERrnphYdVxp7qIL-54" value="1" style="text;html=1;align=center;verticalAlign=middle;resizable=0;points=[];autosize=1;strokeColor=#b85450;fillColor=#f8cecc;" vertex="1" parent="1">
          <mxGeometry x="615" y="1538" width="30" height="30" as="geometry" />
        </mxCell>
        <mxCell id="50w-MERrnphYdVxp7qIL-55" value="m" style="text;html=1;align=center;verticalAlign=middle;resizable=0;points=[];autosize=1;strokeColor=#b85450;fillColor=#f8cecc;" vertex="1" parent="1">
          <mxGeometry x="490" y="1280" width="30" height="30" as="geometry" />
        </mxCell>
        <mxCell id="50w-MERrnphYdVxp7qIL-71" style="edgeStyle=orthogonalEdgeStyle;rounded=0;orthogonalLoop=1;jettySize=auto;html=1;exitX=0;exitY=0.5;exitDx=0;exitDy=0;entryX=1;entryY=0.75;entryDx=0;entryDy=0;" edge="1" parent="1" source="50w-MERrnphYdVxp7qIL-58" target="LCfxhYpiwXt6MlaV5HZB-2">
          <mxGeometry relative="1" as="geometry" />
        </mxCell>
        <mxCell id="50w-MERrnphYdVxp7qIL-58" value="woret" style="rhombus;whiteSpace=wrap;html=1;rounded=0;fillColor=#d5e8d4;strokeColor=#82b366;" vertex="1" parent="1">
          <mxGeometry x="770" y="630" width="130" height="110" as="geometry" />
        </mxCell>
        <mxCell id="50w-MERrnphYdVxp7qIL-69" style="edgeStyle=orthogonalEdgeStyle;rounded=0;orthogonalLoop=1;jettySize=auto;html=1;exitX=0;exitY=0.5;exitDx=0;exitDy=0;entryX=1;entryY=0.25;entryDx=0;entryDy=0;" edge="1" parent="1" source="50w-MERrnphYdVxp7qIL-67" target="50w-MERrnphYdVxp7qIL-28">
          <mxGeometry relative="1" as="geometry">
            <mxPoint x="520" y="1200" as="targetPoint" />
          </mxGeometry>
        </mxCell>
        <mxCell id="50w-MERrnphYdVxp7qIL-67" value="admin only add /delete" style="rhombus;whiteSpace=wrap;html=1;rounded=0;" vertex="1" parent="1">
          <mxGeometry x="680" y="880" width="150" height="120" as="geometry" />
        </mxCell>
        <mxCell id="50w-MERrnphYdVxp7qIL-70" value="1" style="text;html=1;align=center;verticalAlign=middle;resizable=0;points=[];autosize=1;strokeColor=#82b366;fillColor=#d5e8d4;" vertex="1" parent="1">
          <mxGeometry x="1015" y="668" width="30" height="30" as="geometry" />
        </mxCell>
        <mxCell id="50w-MERrnphYdVxp7qIL-72" value="m" style="text;html=1;align=center;verticalAlign=middle;resizable=0;points=[];autosize=1;strokeColor=#82b366;fillColor=#d5e8d4;" vertex="1" parent="1">
          <mxGeometry x="525" y="578" width="30" height="30" as="geometry" />
        </mxCell>
        <mxCell id="50w-MERrnphYdVxp7qIL-73" value="m" style="text;html=1;align=center;verticalAlign=middle;resizable=0;points=[];autosize=1;strokeColor=#d79b00;fillColor=#ffcd28;gradientColor=#ffa500;" vertex="1" parent="1">
          <mxGeometry x="515" y="1168" width="30" height="30" as="geometry" />
        </mxCell>
        <mxCell id="50w-MERrnphYdVxp7qIL-74" value="1" style="text;html=1;align=center;verticalAlign=middle;resizable=0;points=[];autosize=1;strokeColor=#d79b00;fillColor=#ffcd28;gradientColor=#ffa500;" vertex="1" parent="1">
          <mxGeometry x="1055" y="730" width="30" height="30" as="geometry" />
        </mxCell>
      </root>
    </mxGraphModel>
  </diagram>
</mxfile>
